#!OML:ASF H:\Terrain\Patient Classification 1\Terrain2\Thursday\justin.ASF
:FULLY-SPECIFIED
:DEGREES
1402
root 8.5422 17.8962 29.3707 -363.895 18.105 -5.43993
lowerback 9.0469 -0.407662 -1.08115
upperback 4.71247 -0.556108 3.28085
thorax -0.139096 -0.320844 4.05733
lowerneck -9.561 -1.96059 -10.1118
upperneck 44.2139 -2.21354 6.02116
head 18.5015 -1.67602 4.4117
rclavicle -2.85008e-014 -3.3694e-014
rhumerus -26.6036 -14.1471 -78.3433
rradius 23.4337
rwrist -3.04422
rhand -20.791 14.6718
rfingers 7.12502
rthumb 5.5761 -15.2349
lclavicle -2.85008e-014 -3.3694e-014
lhumerus -33.6497 2.9847 81.9636
lradius 53.7021
lwrist 8.92779
lhand -19.3298 22.3442
lfingers 7.12502
lthumb 6.98684 52.2089
rfemur -18.3734 6.69665 18.7769
rtibia 36.5608
rfoot -15.1973 8.93715
rtoes 5.59329
lfemur -11.3446 -1.51836 -14.799
ltibia 29.3867
lfoot -12.8152 -16.3212
ltoes -2.51278
1403
root 8.52171 17.9092 29.4226 -364.065 18.7605 -5.75003
lowerback 8.79888 -0.4896 -0.897602
upperback 4.94904 -0.653281 3.47199
thorax 0.251018 -0.375166 4.15666
lowerneck -9.89199 -1.94297 -9.87412
upperneck 44.1625 -1.98654 5.51621
head 18.5189 -1.59986 4.16038
rclavicle -5.96354e-015 -4.57205e-015
rhumerus -26.017 -13.9461 -78.3407
rradius 23.3877
rwrist -3.51215
rhand -20.7004 14.8228
rfingers 7.12502
rthumb 5.66362 -15.0815
lclavicle -5.96354e-015 -4.57205e-015
lhumerus -33.3047 3.15992 82.1522
lradius 53.9188
lwrist 8.53881
lhand -18.9549 21.4675
lfingers 7.12502
lthumb 7.34869 51.3199
rfemur -18.2479 7.41333 18.8311
rtibia 36.1016
rfoot -15.0668 10.0117
rtoes 7.03791
lfemur -11.1667 -1.7264 -14.4212
ltibia 29.185
lfoot -12.9203 -16.7509
ltoes -2.75148
1404
root 8.49945 17.9042 29.4775 -364.076 19.4548 -5.90262
lowerback 8.71027 -0.504569 -0.826768
upperback 4.87981 -0.665802 3.52866
thorax 0.228624 -0.379252 4.17578
lowerneck -9.85707 -2.04427 -9.95115
upperneck 44.269 -2.16976 5.66057
head 18.6073 -1.66699 4.22265
rclavicle -1.03865e-014 1.35174e-014
rhumerus -26.0568 -13.5268 -78.3715
rradius 23.6504
rwrist -4.14339
rhand -20.3439 14.5587
rfingers 7.12502
rthumb 6.0078 -15.3361
lclavicle -1.03865e-014 1.35174e-014
lhumerus -33.3127 3.0307 82.1775
lradius 54.0575
lwrist 8.10342
lhand -17.7916 20.9552
lfingers 7.12502
lthumb 8.47147 50.7652
rfemur -18.2044 7.99858 18.7224
rtibia 35.6242
rfoot -14.8846 11.1771
rtoes 6.96293
lfemur -11.2126 -2.40156 -14.238
ltibia 29.1613
lfoot -12.8541 -16.7157
ltoes -2.53523
1405
root 8.47924 17.9022 29.5375 -364.012 20.101 -5.63689
lowerback 8.75956 -0.459622 -1.14238
upperback 4.71758 -0.626442 3.44047
thorax 0.0330102 -0.359895 4.26115
lowerneck -9.59401 -2.1271 -9.90678
upperneck 44.3823 -2.37985 5.79634
head 18.6366 -1.72606 4.25187
rclavicle -1.02623e-014 -1.98785e-016
rhumerus -26.4046 -13.134 -78.4013
rradius 24.1234
rwrist -4.36814
rhand -20.3137 14.4655
rfingers 7.12502
rthumb 6.03693 -15.4285
lclavicle -1.02623e-014 -1.98785e-016
lhumerus -33.586 2.66817 82.2944
lradius 54.3395
lwrist 8.30834
lhand -18.0519 20.7767
lfingers 7.12502
lthumb 8.22027 50.5967
rfemur -18.0254 8.48454 18.2387
rtibia 35.1394
rfoot -14.8743 12.3093
rtoes 5.39684
lfemur -11.159 -3.00358 -14.5017
ltibia 29.2141
lfoot -12.9076 -16.6593
ltoes -2.24394
1406
root 8.46023 17.9023 29.596 -364.024 20.8122 -5.49708
lowerback 8.72188 -0.436442 -1.28686
upperback 4.68757 -0.605772 3.38521
thorax 0.0220283 -0.350556 4.2833
lowerneck -9.54003 -2.19769 -9.62336
upperneck 44.3974 -2.48133 5.616
head 18.634 -1.73595 4.09542
rclavicle -2.24875e-014 5.96354e-016
rhumerus -26.4998 -13.2664 -78.367
rradius 24.4371
rwrist -4.37089
rhand -20.4818 14.4787
rfingers 7.12502
rthumb 5.8747 -15.4199
lclavicle -2.24875e-014 5.96354e-016
lhumerus -33.861 2.12156 82.4605
lradius 54.8324
lwrist 8.71885
lhand -18.6265 20.8591
lfingers 7.12502
lthumb 7.66563 50.7001
rfemur -17.7412 8.90362 17.885
rtibia 34.5698
rfoot -14.502 13.4239
rtoes 6.25176
lfemur -11.1038 -3.30078 -14.6246
ltibia 29.3591
lfoot -13.275 -16.941
ltoes -3.11258
